<?xml version="1.0" encoding="UTF-8"?>
<svg id="logo" xmlns="http://www.w3.org/2000/svg" viewBox="0 0 437.29883 82.33691">
  <defs>
    <style>
      .cls-1 {
        fill: none;
        stroke: #000;
        stroke-miterlimit: 10;
        stroke-width: 3.92754px;
      }
    </style>
  </defs>
  <g id="Orbit">
    <path d="M244.31787,57.76904c-.84863,0-1.68359-.01562-2.50391-.04541l.08008-2.19824c1.30273,.04834,2.64404,.05566,4.01807,.02539l.04883,2.19922c-.55322,.0127-1.10059,.01904-1.64307,.01904Zm5.78125-.22656l-.16895-2.19336c1.32275-.10205,2.67041-.24121,4.00488-.4126l.28125,2.18164c-1.37207,.17676-2.75732,.31934-4.11719,.42432Zm-12.43066-.10303c-1.40967-.14453-2.79834-.33887-4.12598-.57812l.38965-2.16504c1.27344,.229,2.60596,.41602,3.96094,.55469l-.22461,2.18848Zm20.63428-.94971l-.38477-2.16602c1.30078-.23145,2.62988-.50049,3.9502-.80029l.4873,2.14551c-1.354,.30713-2.71777,.5835-4.05273,.8208Zm-28.84033-.55615c-1.42285-.39697-2.76465-.85791-3.98828-1.36963l.84863-2.0293c1.14014,.47656,2.39551,.90723,3.73096,1.27979l-.59131,2.11914Zm36.90088-1.271l-.58301-2.12109c.42969-.11816,.86084-.24023,1.29297-.36621,.86865-.25342,1.72949-.51465,2.58105-.78369l.66309,2.09766c-.86719,.27393-1.74365,.54004-2.62842,.79834-.44336,.12891-.88525,.25391-1.32568,.375Zm-44.68262-2.08105c-1.3667-.89697-2.47705-1.88818-3.2998-2.94531l1.73633-1.35156c.67432,.8667,1.60645,1.69336,2.77051,2.45801l-1.20703,1.83887Zm52.5459-.40332l-.7373-2.07324c1.27832-.4541,2.55127-.93311,3.78418-1.42383l.81348,2.04395c-1.25781,.50049-2.55713,.98975-3.86035,1.45312Zm7.66504-3.0542l-.89453-2.00977c1.24463-.5542,2.47314-1.13232,3.65088-1.71924l.98096,1.96875c-1.20605,.60107-2.46387,1.19336-3.7373,1.76025Zm-64.36914-.80225c-.49365-.92627-.74414-1.96436-.74414-3.08643,0-.51709,.0542-1.05811,.16016-1.6084l2.16016,.41699c-.07959,.41309-.12012,.81396-.12012,1.19141,0,.75684,.16309,1.44727,.48535,2.05127l-1.94141,1.03516Zm71.76465-2.89209l-1.07617-1.91895c1.19141-.66797,2.35156-1.3623,3.44922-2.06445l1.18555,1.85352c-1.13379,.72461-2.33105,1.44141-3.55859,2.12988Zm6.98535-4.48633l-1.31055-1.7666c1.1123-.82568,2.1543-1.66943,3.09766-2.50781l1.46094,1.64453c-.99023,.88086-2.08398,1.76611-3.24805,2.62988Zm-75.8125-.34375l-1.91211-1.08789c.64307-1.13086,1.46338-2.30811,2.43848-3.49902l1.70215,1.39355c-.89648,1.0957-1.64648,2.16992-2.22852,3.19336Zm82.0459-5.26123l-1.65039-1.45508c.9209-1.04346,1.70117-2.09033,2.32031-3.11133l1.88086,1.14062c-.68555,1.13232-1.54395,2.28516-2.55078,3.42578Zm-77.1333-.84814l-1.54102-1.57031c.9502-.93262,1.99316-1.87256,3.09961-2.79492l1.4082,1.69043c-1.06055,.88379-2.05908,1.78369-2.9668,2.6748Zm6.13379-5.13867l-1.29395-1.7793c1.09521-.7959,2.24756-1.58301,3.42529-2.33984l1.18848,1.85156c-1.14209,.7334-2.25928,1.49658-3.31982,2.26758Zm75.30811-1.44678l-2.125-.56641c.20996-.7876,.31641-1.56689,.31641-2.31592,0-.42188-.03418-.8457-.10254-1.26172l2.17188-.35645c.08691,.53467,.13184,1.08008,.12988,1.62061,0,.93799-.13086,1.90771-.39062,2.87988Zm-68.54248-2.90137l-1.08691-1.91309c1.19141-.67676,2.42041-1.33398,3.65234-1.95215l.98633,1.9668c-1.19775,.60107-2.39307,1.23975-3.55176,1.89844Zm65.09033-4.14014c-.77344-.72461-1.8252-1.42236-3.12695-2.07471l.98633-1.9668c1.49023,.74707,2.7168,1.56689,3.64453,2.43604l-1.50391,1.60547Zm-6.76074-3.5498c-1.18066-.3916-2.46973-.74756-3.83203-1.05762l.48828-2.14551c1.43066,.32617,2.78906,.70117,4.03711,1.11523l-.69336,2.08789Zm-7.76465-1.79541c-1.2832-.19385-2.62402-.35254-3.98584-.47168l.19189-2.19141c1.40723,.12305,2.79395,.28711,4.12207,.4873l-.32812,2.17578Zm-8.00146-.70996c-1.30664-.04248-2.65186-.05273-4.02783-.02734l-.04004-2.19922c1.41309-.02686,2.79492-.01416,4.13818,.02734l-.07031,2.19922Z"/>
  </g>
  <ellipse id="Planet" class="cls-1" cx="262.52432" cy="35.16853" rx="23.9703" ry="24.44554"/>
  <ellipse id="Satellite" cx="281.84524" cy="46.16853" rx="11.75657" ry="11.98966"/>
  <g>
    <path d="M319.55273,62.54736V10.60938h11.43652V62.54736h-11.43652Zm5.2168-20.14648v-9.43066h19.40918c2.05859,0,3.72852-.58936,5.00879-1.76807,1.2793-1.17871,1.91992-2.73242,1.91992-4.66162,0-1.97607-.63379-3.5542-1.89941-4.73291-1.2666-1.17871-2.94238-1.76807-5.0293-1.76807h-19.40918V10.60938h19.11621c3.84082,0,7.18652,.66064,10.03906,1.98242,2.85156,1.32178,5.07129,3.17334,6.65723,5.55469s2.37891,5.1792,2.37891,8.39404c0,3.19141-.79297,5.97803-2.37891,8.35889-1.58594,2.38135-3.8125,4.22754-6.67871,5.53662-2.86621,1.31006-6.20508,1.96484-10.01758,1.96484h-19.11621Z"/>
    <path d="M382.9541,10.60938V62.54736h-11.85352V10.60938h11.85352Z"/>
    <path d="M388.79785,62.54736l21.87109-31.97021,13.64844-19.96777h12.06348l-20.07715,29.3623-15.44336,22.57568h-12.0625Zm36.43848,0l-14.69238-21.25391-1.16895-1.67871-20.07617-29.00537h12.0625l13.60645,19.68213,1.58691,2.32178,20.74414,29.93408h-12.0625Z"/>
  </g>
  <g>
    <path d="M6.67871,62.54736V10.60938h11.43652V62.54736H6.67871ZM10.81055,20.03955V10.60938H47.33203v9.43018H10.81055Zm0,21.43262v-9.43066h31.93066v9.43066H10.81055Zm0,21.0752v-9.43018H47.33203v9.43018H10.81055Z"/>
    <path d="M51.08789,20.03955V10.60938h44.49414v9.43018H51.08789Zm16.5293,42.50781V14.85986h11.43652V62.54736h-11.43652Z"/>
    <path d="M102.26074,62.54736V10.60938h11.43652V62.54736h-11.43652Zm5.30078-21.03955v-9.43018h35.35254v9.43018h-35.35254Zm27.92285,21.03955V10.60938h11.43652V62.54736h-11.43652Z"/>
    <path d="M160.27832,62.54736V10.57324h11.43652V62.54736h-11.43652Zm4.54883-20.89648v-9.43066h21.12012c1.78027,0,3.20703-.55908,4.27832-1.67871,1.07129-1.11914,1.62109-2.59521,1.64844-4.42969,0-1.8335-.53613-3.30957-1.60645-4.4292-1.07129-1.11914-2.51172-1.67871-4.32031-1.67871h-21.12012V10.57324h22.03809c3.36719,0,6.30957,.64307,8.82812,1.9292s4.47266,3.0957,5.86426,5.42969,2.08691,5.06055,2.08691,8.17969c0,3.12012-.70312,5.84668-2.10742,8.18018-1.40527,2.33447-3.36035,4.14355-5.86426,5.42969-2.50488,1.28613-5.44043,1.9292-8.80762,1.9292h-22.03809Zm27.50586,20.89648l-14.7334-22.50439,12.22949-1.64307,16.36133,24.14746h-13.85742Z"/>
  </g>
</svg>